<svg width="28" height="28" viewBox="0 0 28 28" fill="none" xmlns="http://www.w3.org/2000/svg">
<circle cx="14" cy="14" r="13.5" stroke="#C4C4C4"/>
<g clip-path="url(#clip0_0_21)">
<path d="M15.6315 11.8421C16.3853 11.8421 17.1082 12.1415 17.6412 12.6745C18.1742 13.2075 18.4736 13.9304 18.4736 14.6842V18H16.5789V14.6842C16.5789 14.433 16.4791 14.192 16.3014 14.0143C16.1238 13.8367 15.8828 13.7368 15.6315 13.7368C15.3803 13.7368 15.1393 13.8367 14.9616 14.0143C14.784 14.192 14.6842 14.433 14.6842 14.6842V18H12.7894V14.6842C12.7894 13.9304 13.0889 13.2075 13.6219 12.6745C14.1549 12.1415 14.8778 11.8421 15.6315 11.8421Z" fill="#545454"/>
<path d="M10.8947 12.3158H9V18H10.8947V12.3158Z" fill="#545454"/>
<path d="M9.94737 10.8947C10.4706 10.8947 10.8947 10.4706 10.8947 9.94737C10.8947 9.42415 10.4706 9 9.94737 9C9.42415 9 9 9.42415 9 9.94737C9 10.4706 9.42415 10.8947 9.94737 10.8947Z" fill="#545454"/>
</g>
<defs>
<clipPath id="clip0_0_21">
<rect width="10" height="9" fill="white" transform="translate(9 9)"/>
</clipPath>
</defs>
</svg>
