<svg width="16" height="18" viewBox="0 0 16 18" fill="none" xmlns="http://www.w3.org/2000/svg">
<g clip-path="url(#clip0_0_41)">
<path d="M13.8333 8.16666H2.16667C1.24619 8.16666 0.5 8.91285 0.5 9.83332V15.6667C0.5 16.5871 1.24619 17.3333 2.16667 17.3333H13.8333C14.7538 17.3333 15.5 16.5871 15.5 15.6667V9.83332C15.5 8.91285 14.7538 8.16666 13.8333 8.16666Z" stroke="#9A9A9A" stroke-linecap="round" stroke-linejoin="round"/>
<path d="M3.83337 8.16666V4.83332C3.83337 3.72825 4.27236 2.66845 5.05376 1.88704C5.83516 1.10564 6.89497 0.666656 8.00004 0.666656C9.10511 0.666656 10.1649 1.10564 10.9463 1.88704C11.7277 2.66845 12.1667 3.72825 12.1667 4.83332V8.16666" stroke="#9A9A9A" stroke-linecap="round" stroke-linejoin="round"/>
</g>
<defs>
<clipPath id="clip0_0_41">
<rect width="16" height="18" fill="white"/>
</clipPath>
</defs>
</svg>
